<?xml version="1.0" encoding="UTF-8"?>
<!-- Generator: Adobe Illustrator 21.0.0, SVG Export Plug-In . SVG Version: 6.00 Build 0)  -->
<svg version="1.1" id="Ebene_1" xmlns="http://www.w3.org/2000/svg" xmlns:xlink="http://www.w3.org/1999/xlink" x="0px" y="0px" viewBox="0 0 2728 576.1" style="enable-background:new 0 0 2728 576.1;" xml:space="preserve">
<style type="text/css">
	.st0{fill:#677492;}
	.st1{fill:url(#SVGID_1_);}
	.st2{fill:url(#SVGID_2_);}
	.st3{fill:url(#SVGID_3_);}
	.st4{fill:url(#SVGID_4_);}
	.st5{fill:url(#SVGID_5_);}
	.st6{fill:url(#SVGID_6_);}
</style>
<g>
	<path class="st0" d="M1773.3,149.2h82.8l-3.1,32c10.8-12.1,23.3-21.4,37.3-27.9c14-6.5,30.4-9.7,49.2-9.7c13.8,0,26.7,2.9,38.9,8.8   c12.1,5.9,22.7,14.1,31.6,24.8c9,10.7,16.1,23.2,21.3,37.6c5.2,14.4,7.8,30.4,7.8,47.9c0,32.2-4.9,60.1-14.7,83.7   c-9.8,23.6-23,43.4-39.5,59.2c-16.5,15.9-35.4,27.7-56.7,35.4c-21.3,7.7-43.5,11.6-66.5,11.6c-9.6,0-19.1-0.9-28.5-2.8   s-19.5-5.3-30.4-10.4l-25.1,129.2h-85.9L1773.3,149.2z M1816.6,368.6c6.3,3.7,13.1,6.4,20.4,7.8c7.3,1.5,14.7,2.2,22.3,2.2   c13.8,0,26.2-2.9,37.3-8.8c11.1-5.9,20.5-13.6,28.2-23.2c7.7-9.6,13.7-20.9,17.9-33.9c4.2-13,6.3-26.3,6.3-40.1   c0-16.3-4-29.3-11.9-38.9c-7.9-9.6-19.2-14.4-33.8-14.4c-17.6,0-32.7,6.2-45.5,18.5c-12.8,12.3-21.4,29.8-26,52.4L1816.6,368.6z"/>
	<path class="st0" d="M2232.2,415.6c-12.1,13-25.3,22.2-39.5,27.9c-14.2,5.6-29.5,8.4-45.7,8.4c-11.3,0-22.1-1.9-32.3-5.6   c-10.2-3.8-19.2-9.3-27-16.6c-7.7-7.3-13.8-16.2-18.2-26.6c-4.4-10.5-6.6-22.4-6.6-35.8c0-16.7,3.4-32.1,10-46.1   s16.3-25.9,28.8-35.7s27.7-17.5,45.5-22.9c17.8-5.4,37.9-8.2,60.5-8.2c10.4,0,19.5,0.3,27.3,1c7.7,0.6,16.8,1.6,27.3,2.8l1.2-6.3   c0.4-2.1,0.7-4,1-5.6c0.2-1.7,0.3-3.4,0.3-5c0-13-5.3-21.8-16-26.6c-10.7-4.8-22.9-7.2-36.7-7.2c-18.4,0-33.7,2.4-46.1,7.2   c-12.3,4.8-23.9,10.3-34.8,16.6l-30.7-53.9c13.8-9.6,31.8-18.4,53.9-26.3c22.1-7.9,47.6-11.9,76.5-11.9c36.8,0,65.1,8.8,85,26.3   c19.8,17.6,29.8,43.1,29.8,76.5c0,4.6-0.3,9.6-1,15.1c-0.6,5.4-1.3,10.7-2.2,15.7l-33.2,170.5h-80.2L2232.2,415.6z M2251.7,314   c-4.2-0.8-9.4-1.7-15.7-2.5s-13.6-1.2-21.9-1.2c-22.6,0-39.4,4.2-50.5,12.5s-16.6,19-16.6,32c0,10.9,3.1,19,9.4,24.5   s14.8,8.2,25.7,8.2c6.3,0,12.9-1,19.8-2.8c6.9-1.9,13.4-4.9,19.4-9.1c6-4.2,11.4-9.5,16-16c4.6-6.5,7.9-14.3,10-23.5L2251.7,314z"/>
	<path class="st0" d="M2349.4,490.8c13,9.2,25.3,13.8,37,13.8c10.9,0,20.2-4.2,27.9-12.5c7.7-8.4,16.2-20.5,25.4-36.4l10-17.6   l-72.1-289h95.9l34.5,189.9l97.2-189.9h97.2l-175.5,301.5c-10.5,17.6-20.6,34-30.4,49.2c-9.8,15.3-20.1,28.5-30.7,39.8   c-10.7,11.3-22.1,20.2-34.2,26.6c-12.1,6.5-25.7,9.7-40.7,9.7c-14.6,0-28-1.3-40.1-4.1c-12.1-2.7-24.7-9.5-37.6-20.4L2349.4,490.8z   "/>
</g>
<linearGradient id="SVGID_1_" gradientUnits="userSpaceOnUse" x1="472.5917" y1="421.573" x2="449.7518" y2="189.021">
	<stop offset="0" style="stop-color:#582582"/>
	<stop offset="1" style="stop-color:#DA2083"/>
</linearGradient>
<path class="st1" d="M599.3,216.7c-0.7-1.7-1.6-3.3-2.4-5l-74.1,42.8c2.1,7.5,3.1,15.9,3.1,25.2c0,13.9-2.3,26.4-6.7,37.6  c-4.5,11.2-10.4,20.9-17.7,29c-7.3,8.2-15.6,14.5-24.8,18.9c-9.2,4.5-18.6,6.7-28.4,6.7c-18.3,0-32.1-5.9-41.3-17.7  c-9.2-11.8-13.7-27.5-13.7-47.1c0-13.4,2.1-25.8,6.4-37c4.3-11.2,10.1-21,17.4-29.3c7.3-8.4,15.6-14.8,24.7-19.3  c9.2-4.5,18.7-6.7,28.4-6.7c0.8,0,1.6,0.1,2.4,0.1V245l114.7-66.2l-114.7-66.2v28c-19.8,1.1-38.8,5.5-56.8,13.5  c-20.8,9.2-38.9,21.8-54.4,37.9c-15.5,16.1-27.8,35.1-37,56.8c-9.2,21.8-13.7,45.2-13.7,70c0,18.3,3.3,35.3,9.8,51  c6.5,15.7,15.6,29.3,27.2,40.7c11.6,11.4,25.2,20.3,40.7,26.6c15.5,6.3,32.2,9.5,50.1,9.5c24.8,0,47.8-4.6,68.7-13.7  c21-9.2,39-21.8,54.1-37.9c15.1-16.1,26.8-34.9,35.1-56.5c8.4-21.6,12.5-45,12.5-70.3C609.1,249.3,605.8,232.2,599.3,216.7z"/>
<linearGradient id="SVGID_2_" gradientUnits="userSpaceOnUse" x1="-96.3197" y1="334.6776" x2="1610.4464" y2="66.8275">
	<stop offset="0" style="stop-color:#582582"/>
	<stop offset="1" style="stop-color:#DA2083"/>
</linearGradient>
<path class="st2" d="M156.9,212.4c5.7-4.5,14.4-6.7,26.3-6.7c23.2,0,45.6,9,67.2,26.9l44-50.1c-17.1-15.1-34.8-25.9-53.2-32.4  c-18.3-6.5-37.3-9.8-56.8-9.8c-16.3,0-31.6,1.9-45.8,5.8c-14.3,3.9-26.8,9.7-37.6,17.4c-10.8,7.7-19.4,17.5-25.7,29.3  c-6.3,11.8-9.5,25.7-9.5,41.6c0,11.4,1.9,21.4,5.8,29.9c3.9,8.6,8.8,16.1,15,22.6c6.1,6.5,13.1,12.1,21.1,16.8  c8,4.7,16,8.9,24.2,12.5c9.8,4.5,17.9,8.2,24.4,11c6.5,2.9,11.9,5.6,16.2,8.2c4.3,2.7,7.3,5.4,9.2,8.3c1.8,2.9,2.7,6.3,2.7,10.4  c0,16.7-13.2,25.1-39.7,25.1c-17.1,0-32-2.4-44.6-7.3C87.4,367,74,359.3,59.7,348.7L20,404.3c18.7,15.5,38.8,26.4,60.2,32.7  c21.4,6.3,44.3,9.5,68.8,9.5c16.7,0,32.4-1.9,47.1-5.8c14.7-3.9,27.4-9.8,38.2-17.7c10.8-7.9,19.4-18,25.7-30.2  c6.3-12.2,9.5-26.7,9.5-43.4c0-18.3-5.7-33.5-17.1-45.5c-11.4-12-26.9-22.7-46.4-32.1c-12.2-5.7-22.1-10.4-29.7-14.1  c-7.5-3.7-13.3-6.9-17.4-9.8c-4.1-2.8-6.8-5.8-8.3-8.8c-1.4-3.1-2.1-6.8-2.1-11.3C148.3,222,151.2,216.9,156.9,212.4z"/>
<linearGradient id="SVGID_3_" gradientUnits="userSpaceOnUse" x1="-61.4118" y1="503.968" x2="1645.3542" y2="236.1179">
	<stop offset="0" style="stop-color:#582582"/>
	<stop offset="1" style="stop-color:#DA2083"/>
</linearGradient>
<path class="st3" d="M1577.8,372.2c-5.9,2.6-12.9,4-21.1,4c-8.9,0-15.6-2.4-19.9-7.3c-4.3-4.9-6.4-11.4-6.4-19.6  c0-4.9,0.6-10.2,1.8-15.9l22.6-115.5h71.5l12.8-67.8h-71.5l17.1-86.8h-85.6l-16.5,86.8H1440l-12.8,67.8h42.8l-22,110.6  c-1.2,6.9-2.2,13.3-3.1,19.2c-0.8,5.9-1.2,11.7-1.2,17.4c0,54.6,31.2,81.9,93.5,81.9c16.3,0,32.5-2.7,48.6-7.9  c16.1-5.3,31.3-13.8,45.5-25.7l-34.2-53.2C1590.1,365.6,1583.7,369.5,1577.8,372.2z"/>
<linearGradient id="SVGID_4_" gradientUnits="userSpaceOnUse" x1="-91.766" y1="363.6942" x2="1615" y2="95.844">
	<stop offset="0" style="stop-color:#582582"/>
	<stop offset="1" style="stop-color:#DA2083"/>
</linearGradient>
<path class="st4" d="M790.6,150l4.9-20.8c3.3-13.8,8.6-24,15.9-30.6c7.3-6.5,16.1-9.8,26.3-9.8c8.9,0,16.4,1.4,22.3,4.3  c5.9,2.9,11.3,6.5,16.2,11L918.9,51c-11-10.6-23.3-18.7-37-24.4c-13.6-5.7-30-8.6-49.2-8.6c-35.9,0-63.6,9.8-83.1,29.3  c-19.6,19.6-33,48.5-40.3,86.8l-3.1,15.9h-44.6l-13.4,67.8h44.6l-42.2,218.8H735l42.2-218.8h64.8l13.4-67.8H790.6z"/>
<linearGradient id="SVGID_5_" gradientUnits="userSpaceOnUse" x1="-76.1179" y1="499.0292" x2="1630.6482" y2="231.1791">
	<stop offset="0" style="stop-color:#582582"/>
	<stop offset="1" style="stop-color:#DA2083"/>
</linearGradient>
<path class="st5" d="M1397.6,146.4c-5.9-1.2-12.3-1.8-19.2-1.8c-17.5,0-33,4-46.4,11.9c-13.4,7.9-25.3,17.8-35.4,29.6l4.3-36.1  h-80.7l-55.6,286.6h84.3l25.7-133.8c4.5-23.2,13.7-42.5,27.8-57.7c14.1-15.3,32.1-22.9,54.1-22.9c5.7,0,10.9,0.3,15.6,0.9  c4.7,0.6,20.6,6.1,26.7,8.5l16.4-80.3C1409.4,149.2,1403.6,147.6,1397.6,146.4z"/>
<linearGradient id="SVGID_6_" gradientUnits="userSpaceOnUse" x1="-76.3401" y1="461.9898" x2="1630.426" y2="194.1397">
	<stop offset="0" style="stop-color:#582582"/>
	<stop offset="1" style="stop-color:#DA2083"/>
</linearGradient>
<path class="st6" d="M1109.6,176.3c-11.4-11.4-24.9-20.3-40.3-26.6c-15.5-6.3-32.2-9.5-50.1-9.5c-23.2,0-45.2,4.6-66,13.7  c-20.8,9.2-38.9,21.8-54.4,37.9c-15.5,16.1-27.8,35.1-37,56.8c-9.2,21.8-13.7,45.2-13.7,70c0,18.3,3.3,35.3,9.8,51  c6.5,15.7,15.6,29.3,27.2,40.7c11.6,11.4,25.2,20.3,40.7,26.6c15.5,6.3,32.2,9.5,50.1,9.5c24.8,0,47.8-4.6,68.7-13.7  c21-9.2,39-21.8,54.1-37.9c15.1-16.1,26.8-34.9,35.1-56.5c8.4-21.6,12.5-45,12.5-70.3c0-18.7-3.3-35.8-9.8-51.3  C1130,201.2,1121,187.7,1109.6,176.3z M1056.4,317.2c-4.5,11.2-10.4,20.9-17.7,29c-7.3,8.2-15.6,14.5-24.8,18.9  c-9.2,4.5-18.6,6.7-28.4,6.7c-18.3,0-32.1-5.9-41.3-17.7c-9.2-11.8-13.7-27.5-13.7-47.1c0-13.4,2.1-25.8,6.4-37  c4.3-11.2,10.1-21,17.4-29.3c7.3-8.4,15.6-14.8,24.7-19.3c9.2-4.5,18.7-6.7,28.4-6.7c18.7,0,32.7,5.9,41.8,17.7  c9.2,11.8,13.8,27.5,13.8,47.1C1063.2,293.5,1060.9,306,1056.4,317.2z"/>
</svg>